# xmcd
#
# Track frame offsets: 
#        150
#        19107
#        34812
#        66635
#        83530
#        109887
#        128400
#        144205
#        156162
#        172360
#
# Disc length: 2638 seconds
#
# Revision: 4
# Processed by: cddbd v1.5.2PL0 Copyright (c) Steve Scherf et al.
# Submitted via: ExactAudioCopy v0.99pb5
#
DISCID=830a4c0a
DTITLE=Various Artist - Disco Mania - Disc 1
DYEAR=1996
DGENRE=Disco
TTITLE0=Blondie - Heart Of Glass
TTITLE1=Sylvers - Boogie Fever
TTITLE2=McFadden and Whitehead - Ain't No Stoppin' Us Now
TTITLE3=Gonzalez - Haven't Stopped Dancing Yet
TTITLE4=Brass Construction - Ha Cha Cha
TTITLE5=Hot Chocolate - You Sexy Thing
TTITLE6=A Taste Of Honey - Disco Dancin'
TTITLE7=Bobby Womack - Looking For A Love
TTITLE8=Tavares - Heaven Must Be Missing An Angel
TTITLE9=Archie Bell and The Drells - Tighten Up At The Disco
EXTD=YEAR: 1996
EXTT0=
EXTT1=
EXTT2=
EXTT3=
EXTT4=
EXTT5=
EXTT6=
EXTT7=
EXTT8=
EXTT9=
PLAYORDER=
